# xmcd CD database file
#
# Track frame offsets:
#	150
#	20125
#	39752
#	59727
#
# Disc length: 1033 seconds
#
# Revision: 0
# Processed by: cddbd v1.5.1PL2 Copyright (c) Steve Scherf et al.
# Submitted via: CDex 1.60beta1
#
DISCID=30040704
DTITLE=Whoopee!records - 魔法をかけて!ep
DYEAR=2006
DGENRE=Game
TTITLE0=留桜良姫 - 魔法をかけて！
TTITLE1=Ester.H - THE iDOLM@STER
TTITLE2=魔法をかけて！ (instrumental)
TTITLE3=THE iDOLM@STER (instrumental)
EXTD=YEAR: 2006
EXTT0=
EXTT1=
EXTT2=
EXTT3=
PLAYORDER=
